<?xml version="1.0" standalone="no"?>
<!DOCTYPE svg PUBLIC "-//W3C//DTD SVG 20010904//EN"
 "http://www.w3.org/TR/2001/REC-SVG-20010904/DTD/svg10.dtd">
<svg version="1.0" xmlns="http://www.w3.org/2000/svg"
 width="1500.000000pt" height="1500.000000pt" viewBox="0 0 1500.000000 1500.000000"
 preserveAspectRatio="xMidYMid meet">
<metadata>
Created by potrace 1.14, written by Peter Selinger 2001-2017
</metadata>
<g transform="translate(0.000000,1500.000000) scale(0.100000,-0.100000)"
fill="#000000" stroke="none">
<path d="M7798 10985 c-2 -2 -97 -6 -213 -10 -115 -4 -237 -8 -270 -10 -33 -2
-112 -7 -175 -10 -63 -3 -140 -7 -170 -10 -30 -2 -98 -7 -150 -10 -52 -3 -115
-8 -140 -10 -106 -10 -169 -15 -235 -20 -38 -3 -92 -7 -120 -10 -27 -2 -80 -6
-116 -9 -37 -3 -82 -8 -100 -11 -19 -2 -61 -7 -94 -10 -90 -9 -124 -15 -190
-32 -71 -18 -215 -85 -252 -116 -81 -68 -99 -86 -133 -132 -20 -27 -51 -75
-67 -105 -33 -59 -97 -241 -107 -301 -3 -20 -8 -42 -10 -50 -5 -14 -7 -29 -25
-169 -5 -36 -8 -117 -7 -180 1 -93 5 -121 19 -143 18 -28 62 -55 73 -44 5 5
18 54 30 112 11 57 46 164 80 242 97 227 255 396 464 496 73 35 187 75 240 83
14 3 39 7 55 11 37 8 41 8 140 17 44 4 91 9 105 11 31 5 123 13 215 20 104 8
203 15 265 20 345 29 794 44 1295 44 781 1 984 -19 1175 -120 95 -50 202 -159
245 -246 17 -34 33 -62 38 -62 7 -1 42 71 65 134 36 99 45 156 46 270 1 129
-9 163 -66 226 -28 32 -102 75 -143 83 -16 4 -41 9 -55 12 -55 12 -147 21
-310 30 -97 6 -1397 14 -1402 9z"/>
<path d="M7917 10233 c-1 -1 -108 -4 -237 -8 -129 -3 -269 -8 -310 -10 -141
-6 -295 -15 -350 -20 -30 -3 -95 -7 -145 -10 -49 -3 -108 -8 -130 -10 -22 -3
-74 -7 -115 -10 -41 -3 -93 -8 -115 -10 -22 -3 -85 -9 -140 -15 -178 -18 -253
-39 -345 -96 -66 -41 -94 -65 -141 -124 -104 -129 -179 -406 -174 -644 3 -142
33 -160 225 -130 19 3 41 7 48 9 7 3 12 -5 13 -20 1 -14 2 -28 3 -32 1 -5 6
-39 10 -78 5 -38 9 -77 11 -85 3 -14 6 -59 21 -260 13 -184 6 -863 -11 -1000
-1 -14 -6 -65 -10 -114 -4 -50 -8 -97 -10 -105 -2 -9 -6 -45 -10 -81 -3 -36
-8 -76 -10 -90 -2 -14 -6 -43 -9 -65 -9 -62 -46 -316 -51 -345 -2 -14 -7 -45
-10 -70 -3 -25 -8 -56 -10 -70 -2 -14 -7 -45 -10 -70 -3 -25 -8 -56 -10 -70
-2 -14 -7 -50 -10 -80 -3 -30 -8 -66 -10 -80 -2 -14 -6 -52 -10 -85 -3 -33 -8
-76 -10 -95 -23 -173 -18 -499 10 -633 52 -254 129 -414 256 -534 68 -64 79
-73 86 -73 3 0 14 -6 22 -14 9 -8 57 -35 106 -59 131 -65 277 -111 445 -142
14 -3 36 -7 50 -10 14 -2 50 -7 80 -10 30 -4 69 -8 85 -10 167 -22 643 -22
810 -1 17 3 62 7 100 11 39 4 72 9 75 10 3 2 34 6 70 10 36 4 67 8 70 10 3 2
26 6 50 10 25 3 53 8 62 11 9 3 25 6 35 8 156 31 423 118 512 168 64 36 105
61 133 82 14 12 41 32 59 46 134 100 241 249 269 377 35 153 -16 340 -121 445
-91 91 -135 91 -314 4 -197 -97 -425 -181 -550 -202 -11 -2 -51 -10 -90 -18
-38 -8 -97 -18 -130 -21 -33 -4 -68 -9 -78 -11 -98 -18 -540 -25 -667 -10
-216 25 -425 101 -520 189 -98 89 -166 225 -195 387 -7 37 -18 190 -18 240 0
71 13 281 17 289 2 3 7 40 10 81 4 41 9 84 11 95 5 22 11 57 21 121 5 36 10
43 34 46 69 10 1114 -3 1395 -17 44 -3 130 -5 191 -6 99 -1 117 1 160 22 96
47 221 196 287 340 48 106 69 190 73 292 5 139 -22 196 -101 211 -16 4 -41 9
-55 12 -45 10 -800 3 -1185 -11 -197 -7 -236 -9 -470 -20 -77 -4 -153 -8 -170
-9 -26 -1 -30 2 -29 24 0 24 12 142 19 203 2 15 6 62 10 105 3 42 8 88 10 102
2 14 6 66 10 115 3 50 8 108 10 130 10 96 23 378 26 543 l1 102 27 1 c43 3 92
6 176 12 241 19 598 24 963 13 212 -6 247 -8 452 -22 58 -4 168 -8 246 -8 138
-1 141 0 205 31 84 42 143 98 237 225 63 85 114 187 128 253 13 64 16 86 19
145 8 178 -74 249 -315 275 -97 10 -1045 27 -1053 18z"/>
<path d="M5421 6094 c0 -11 3 -14 6 -6 3 7 2 16 -1 19 -3 4 -6 -2 -5 -13z"/>
<path d="M5409 6019 c-1 -24 -3 -53 -4 -64 -26 -187 -26 -651 -1 -781 3 -12 7
-37 10 -55 45 -282 157 -521 321 -683 149 -148 405 -274 695 -341 59 -14 162
-35 200 -40 25 -4 52 -8 60 -10 8 -2 40 -6 70 -10 30 -3 69 -8 85 -10 194 -27
838 -26 1050 0 17 2 57 7 90 10 112 11 150 16 205 25 30 5 73 12 95 15 22 4
47 8 55 10 8 2 31 7 50 10 160 26 448 108 615 175 293 117 573 358 674 582 50
110 67 242 48 373 -5 35 -37 129 -56 164 -17 32 -19 33 -29 15 -5 -10 -13 -35
-17 -54 -12 -58 -91 -210 -151 -290 -69 -91 -181 -202 -272 -269 -37 -28 -72
-55 -79 -61 -7 -5 -15 -10 -19 -10 -3 0 -18 -8 -32 -19 -76 -52 -340 -171
-414 -185 -13 -2 -43 -11 -68 -19 -39 -13 -187 -51 -245 -63 -84 -17 -185 -36
-210 -39 -16 -3 -46 -7 -65 -9 -313 -46 -810 -60 -1070 -31 -25 2 -72 7 -105
11 -58 6 -71 8 -125 19 -14 2 -45 7 -70 11 -24 3 -47 7 -50 9 -3 2 -21 6 -40
9 -19 3 -65 14 -102 25 -38 11 -68 17 -68 14 0 -3 -6 -1 -12 4 -7 5 -44 20
-83 32 -97 32 -265 115 -360 179 -157 106 -310 284 -395 461 -51 105 -106 256
-102 278 1 2 -4 17 -9 35 -5 18 -11 44 -14 58 -3 14 -7 34 -9 45 -2 11 -7 45
-11 75 -4 30 -9 64 -11 75 -2 11 -7 96 -10 190 -5 163 -13 227 -15 134z"/>
</g>
</svg>
